<mxfile host="app.diagrams.net" modified="2022-12-02T02:47:12.974Z" agent="5.0 (Windows NT 6.1; WOW64) AppleWebKit/537.36 (KHTML, like Gecko) Chrome/105.0.0.0 Safari/537.36" etag="w0wyU1jri0bLQETu9ula" version="20.3.7" type="github">
  <diagram id="O3v98CJ_ihhs607zL_dy" name="第 1 页">
    <mxGraphModel dx="1021" dy="480" grid="0" gridSize="10" guides="1" tooltips="1" connect="1" arrows="1" fold="1" page="1" pageScale="1" pageWidth="827" pageHeight="1169" math="0" shadow="0">
      <root>
        <mxCell id="0" />
        <mxCell id="1" parent="0" />
        <mxCell id="S3GZJ11OdPgdI-7tiPsP-7" value="0 1 2 3 4&lt;br&gt;&lt;br&gt;5 6 7 8 9" style="ellipse;whiteSpace=wrap;html=1;aspect=fixed;strokeColor=#007FFF;strokeWidth=5;fontSize=22;" vertex="1" parent="1">
          <mxGeometry x="100" y="180" width="180" height="180" as="geometry" />
        </mxCell>
        <mxCell id="S3GZJ11OdPgdI-7tiPsP-8" value="5 6 7 8 9&lt;br&gt;&lt;br&gt;10 11 12 13 14" style="ellipse;whiteSpace=wrap;html=1;aspect=fixed;strokeColor=#007FFF;strokeWidth=5;fontSize=22;" vertex="1" parent="1">
          <mxGeometry x="380" y="180" width="180" height="180" as="geometry" />
        </mxCell>
        <mxCell id="S3GZJ11OdPgdI-7tiPsP-9" value="v1和v2容器 交集： 5 6 7 8 9&lt;br&gt;&lt;br&gt;v1和v2容器 并集： 0 1 2 3 4 5 6 7 8 9&amp;nbsp;&lt;br&gt;&lt;br&gt;v1和v2容器 差集： 0 1 2 3 4&lt;br&gt;v1和v2容器 差集： 10 11 12 13 14" style="text;html=1;align=left;verticalAlign=middle;resizable=0;points=[];autosize=1;strokeColor=none;fillColor=none;fontSize=22;" vertex="1" parent="1">
          <mxGeometry x="140" y="390" width="400" height="170" as="geometry" />
        </mxCell>
      </root>
    </mxGraphModel>
  </diagram>
</mxfile>
